<svg width="22" height="31" viewBox="0 0 22 31" fill="none" xmlns="http://www.w3.org/2000/svg">
<g opacity="0.4">
<path d="M18.2424 15.6683C18.0211 15.8896 17.7998 16.1109 17.5785 16.3322C17.4904 16.4202 17.4002 16.5083 17.3121 16.5986C17.0629 16.8499 16.8781 17.1636 16.7836 17.5052C16.6783 17.8898 16.7105 18.3087 16.7105 18.704C16.7105 18.8845 16.7105 19.0671 16.7105 19.2476C16.7105 19.2863 16.7105 19.3249 16.7105 19.3615C16.7105 19.4173 16.7063 19.4732 16.702 19.5269C16.6998 19.5763 16.7084 19.4861 16.7084 19.4861C16.702 19.5033 16.702 19.5247 16.6998 19.5441C16.6934 19.5827 16.6848 19.6193 16.674 19.6579C16.6654 19.6859 16.6375 19.8384 16.6117 19.8491C16.6203 19.8449 16.6504 19.7675 16.6203 19.8255C16.6117 19.8427 16.6031 19.8599 16.5945 19.8771C16.5773 19.9115 16.558 19.9437 16.5387 19.9759C16.5215 20.0038 16.5043 20.0318 16.485 20.0597C16.4742 20.0747 16.4635 20.0898 16.4527 20.1048C16.427 20.1456 16.4764 20.0704 16.4764 20.0726C16.485 20.0941 16.341 20.2187 16.3238 20.2359C16.3002 20.2574 16.2723 20.2767 16.2508 20.3003C16.2121 20.3411 16.3195 20.2552 16.2723 20.2853C16.2615 20.2917 16.2486 20.3025 16.2379 20.3111C16.1756 20.354 16.1111 20.3927 16.0445 20.4271C16.0273 20.4357 15.935 20.4808 15.993 20.4529C16.051 20.4249 15.9564 20.4658 15.9371 20.4722C15.8641 20.498 15.7889 20.5173 15.7137 20.5302C15.6986 20.5324 15.6857 20.5345 15.6707 20.5366C15.6127 20.5474 15.7566 20.5302 15.6965 20.5324C15.6621 20.5345 15.6277 20.5388 15.5912 20.5388C15.5654 20.5388 15.5396 20.5388 15.516 20.5409C15.4645 20.5409 15.4129 20.5409 15.3592 20.5409C15.168 20.5409 14.9768 20.5409 14.7855 20.5409C14.3709 20.5409 13.9391 20.5087 13.5438 20.6548C13.2451 20.7644 12.9809 20.9277 12.7531 21.1533C12.65 21.2564 12.5469 21.3595 12.4416 21.4648C12.2117 21.6947 11.9904 21.946 11.7412 22.1587C11.7283 22.1695 11.7176 22.1781 11.7047 22.1888C11.6596 22.2275 11.767 22.1458 11.7176 22.1781C11.6875 22.1974 11.6596 22.2189 11.6295 22.2382C11.5994 22.2575 11.5693 22.2747 11.5371 22.2919C11.5199 22.3005 11.5006 22.3113 11.4834 22.3199C11.4469 22.337 11.4104 22.3306 11.4898 22.3199C11.4254 22.3284 11.3566 22.3693 11.2922 22.3843C11.2578 22.3929 11.2256 22.4015 11.1912 22.4079C11.1719 22.4122 11.1525 22.4144 11.1332 22.4187C11.0773 22.4294 11.2428 22.4101 11.1461 22.4165C11.0773 22.4208 11.0086 22.4251 10.9398 22.423C10.9055 22.4208 10.8711 22.4187 10.8367 22.4165C10.7873 22.4144 10.8775 22.423 10.8775 22.423C10.8539 22.4165 10.8281 22.4144 10.8045 22.4101C10.7314 22.395 10.6605 22.3779 10.5896 22.3521C10.5725 22.3456 10.4715 22.3027 10.5295 22.3306C10.5832 22.3585 10.4801 22.3048 10.4586 22.2941C10.435 22.2812 10.2781 22.1673 10.2652 22.1738C10.2674 22.1738 10.3275 22.2253 10.291 22.1931C10.276 22.1802 10.2588 22.1673 10.2438 22.1523C10.2158 22.1286 10.19 22.1029 10.1621 22.0771C10.1385 22.0534 10.117 22.032 10.0934 22.0083C9.9666 21.8816 9.8377 21.7527 9.71094 21.6259C9.44024 21.3552 9.17598 21.0458 8.84727 20.8439C8.5293 20.6484 8.15762 20.5495 7.78594 20.5474C7.66563 20.5474 7.54531 20.5474 7.425 20.5474C7.10488 20.5474 6.78477 20.5495 6.4668 20.5474C6.41094 20.5474 6.34004 20.5281 6.28633 20.5366C6.28633 20.5366 6.37442 20.5517 6.32715 20.5431C6.30781 20.5388 6.28848 20.5367 6.26914 20.5324C6.23047 20.5259 6.19395 20.5152 6.15527 20.5066C6.12305 20.498 6.09082 20.4872 6.05859 20.4765C6.04141 20.47 6.02207 20.4636 6.00488 20.4572C5.94258 20.4357 6.02422 20.47 6.02852 20.4679C6.00488 20.4808 5.86524 20.3841 5.8416 20.3691C5.81367 20.3519 5.78574 20.3347 5.75996 20.3154C5.75137 20.3089 5.71699 20.2896 5.71484 20.2831C5.7127 20.2788 5.78145 20.3411 5.74707 20.3068C5.69336 20.2552 5.63535 20.2079 5.58379 20.1521C5.57305 20.1413 5.51504 20.0876 5.51934 20.0769C5.51934 20.0769 5.58164 20.165 5.53438 20.0962C5.52578 20.0855 5.51719 20.0726 5.51074 20.0618C5.46777 19.9995 5.4291 19.9351 5.39688 19.8663C5.39043 19.8534 5.38399 19.8406 5.37754 19.8277C5.34102 19.7546 5.38613 19.8513 5.38613 19.8513C5.37109 19.8449 5.3582 19.774 5.35176 19.7568C5.32813 19.6837 5.30879 19.6085 5.2959 19.5312C5.27871 19.4302 5.29805 19.5913 5.29375 19.514C5.2916 19.4796 5.28945 19.4452 5.28731 19.4087C5.28731 19.3894 5.28731 19.3679 5.28731 19.3486C5.28731 19.2068 5.28731 19.065 5.28731 18.9232C5.28731 18.5966 5.30449 18.2658 5.28301 17.9392C5.25723 17.546 5.13047 17.1572 4.89199 16.8435C4.78672 16.706 4.67285 16.5857 4.55039 16.4632C4.29688 16.2097 4.04121 15.954 3.7877 15.7005C3.74258 15.6554 3.69961 15.6103 3.65879 15.563C3.59434 15.4857 3.68242 15.6017 3.6416 15.5394C3.62227 15.5093 3.60078 15.4814 3.58359 15.4492C3.56426 15.4191 3.54707 15.389 3.53203 15.3568C3.52344 15.3396 3.51484 15.3202 3.50625 15.3031C3.48047 15.2515 3.51055 15.2988 3.5127 15.3224C3.5041 15.2536 3.46113 15.1784 3.44395 15.1097C3.43535 15.0753 3.42891 15.0431 3.42246 15.0087C3.41817 14.9894 3.41816 14.9679 3.41387 14.9507C3.42031 14.9743 3.42246 15.0367 3.41817 14.9765C3.41387 14.9034 3.40957 14.8304 3.41387 14.7552C3.41387 14.7402 3.41172 14.6564 3.42246 14.6521C3.42246 14.6521 3.40313 14.7638 3.41817 14.6779C3.42246 14.6585 3.42461 14.6392 3.42891 14.6199C3.4418 14.5511 3.46113 14.4845 3.48262 14.42C3.48906 14.4007 3.49551 14.3835 3.50195 14.3642C3.51914 14.3169 3.52774 14.3534 3.49336 14.3835C3.51699 14.362 3.53203 14.304 3.54707 14.2761C3.55781 14.2546 3.66738 14.1107 3.66094 14.0956C3.66738 14.1085 3.60723 14.1579 3.6502 14.1085C3.66309 14.0935 3.67598 14.0763 3.69102 14.0613C3.7125 14.0376 3.73399 14.014 3.75547 13.9925C3.83496 13.9109 3.9166 13.8314 3.99609 13.7519C4.22598 13.522 4.45801 13.2943 4.68574 13.0622C4.94141 12.8023 5.13262 12.4779 5.2207 12.1234C5.27227 11.9171 5.28516 11.7066 5.28516 11.496C5.28516 11.1308 5.28516 10.7656 5.28516 10.4003C5.28516 10.3659 5.28516 10.3316 5.28516 10.2972C5.28516 10.2392 5.30234 10.1726 5.2959 10.1167C5.30449 10.1898 5.28516 10.1833 5.29375 10.1425C5.29805 10.1232 5.3002 10.1038 5.30449 10.0845C5.31309 10.0458 5.32168 10.0093 5.33242 9.97278C5.34102 9.94056 5.35176 9.90833 5.3625 9.8761C5.36895 9.85892 5.37754 9.83958 5.38184 9.82239C5.39688 9.77513 5.3668 9.86321 5.3668 9.85892C5.35176 9.83528 5.45703 9.68275 5.47207 9.65911C5.48926 9.63118 5.50859 9.6054 5.52793 9.57747C5.58809 9.49153 5.48711 9.62044 5.53867 9.56458C5.58809 9.50872 5.63965 9.45286 5.69551 9.40345C5.71055 9.39056 5.77715 9.31536 5.73848 9.36478C5.71055 9.4013 5.72129 9.37767 5.74063 9.36478C5.75567 9.35403 5.7707 9.34329 5.78574 9.33255C5.84805 9.28958 5.91465 9.25306 5.98125 9.21868C5.99414 9.21224 6.00703 9.20794 6.01992 9.2015C6.06934 9.17357 5.94043 9.22728 5.99629 9.21224C6.02852 9.20364 6.05859 9.1886 6.09082 9.17786C6.16387 9.15423 6.23906 9.13704 6.31641 9.12415C6.39375 9.10911 6.22402 9.13275 6.33359 9.12415C6.36797 9.122 6.40235 9.11985 6.43887 9.11985C6.45606 9.11985 6.47109 9.11985 6.48828 9.11985C6.54199 9.11985 6.5957 9.11985 6.64942 9.11985C7.0125 9.11985 7.37344 9.11985 7.73652 9.11985C8.31231 9.11985 8.84512 8.91146 9.25332 8.50325C9.50254 8.25403 9.75176 8.00482 10.001 7.7556C10.0934 7.66321 10.1836 7.56868 10.2824 7.48489C10.3404 7.43548 10.218 7.53001 10.3061 7.46771C10.3361 7.44837 10.3662 7.42903 10.3963 7.4097C10.4264 7.39251 10.4586 7.37532 10.4887 7.35814C10.5059 7.34954 10.5252 7.34095 10.5424 7.33235C10.5939 7.30442 10.4672 7.36028 10.523 7.34095C10.5939 7.31517 10.6627 7.29153 10.7357 7.27435C10.7701 7.26575 10.8023 7.25931 10.8367 7.25286C10.8518 7.25071 10.8668 7.24857 10.8797 7.24642C10.7787 7.27435 10.8346 7.25286 10.8689 7.25071C10.942 7.24427 11.015 7.24427 11.0902 7.24857C11.1053 7.24857 11.1203 7.25071 11.1354 7.25071C11.1568 7.25286 11.2105 7.24212 11.1504 7.25071C11.1031 7.25716 11.1268 7.24642 11.1525 7.25071C11.1762 7.25501 11.202 7.25931 11.2256 7.2636C11.2986 7.27864 11.3695 7.30013 11.4383 7.32376C11.4533 7.32806 11.4662 7.3345 11.4791 7.3388C11.535 7.35814 11.4061 7.30442 11.4598 7.33021C11.4963 7.34954 11.5328 7.36458 11.5672 7.38392C11.5973 7.4011 11.6295 7.41829 11.6574 7.43763C11.6746 7.44837 11.7605 7.50638 11.7133 7.47415C11.6639 7.43978 11.752 7.50853 11.767 7.51927C11.7906 7.54075 11.8143 7.56224 11.8357 7.58587C11.8615 7.61165 11.8873 7.63743 11.9131 7.66321C12.1709 7.92103 12.4287 8.17884 12.6865 8.43665C12.8369 8.58704 12.9959 8.72884 13.1807 8.83626C13.4943 9.01888 13.8531 9.11341 14.2162 9.11556C14.5449 9.11771 14.8736 9.11556 15.2002 9.11556C15.3119 9.11556 15.4215 9.11556 15.5332 9.11556C15.5633 9.11556 15.5934 9.11556 15.6234 9.11771C15.6471 9.11985 15.748 9.11771 15.6836 9.122C15.6191 9.1263 15.7201 9.12845 15.7416 9.13275C15.7846 9.14134 15.8275 9.15208 15.8684 9.16497C15.9006 9.17357 15.9328 9.18431 15.965 9.19505C15.9736 9.1972 16.0166 9.21009 16.0188 9.21439C16.0209 9.21868 15.9393 9.17571 15.9822 9.19935C16.0488 9.23587 16.1176 9.26595 16.182 9.30677C16.21 9.32396 16.2357 9.34329 16.2637 9.36263C16.326 9.4056 16.2035 9.30892 16.2766 9.37337C16.3324 9.42278 16.3861 9.47435 16.4377 9.53021C16.4463 9.54095 16.4549 9.55169 16.4656 9.56243C16.5193 9.62259 16.4527 9.54095 16.4506 9.54095C16.4678 9.54525 16.5 9.6097 16.5064 9.62044C16.5451 9.67845 16.5816 9.74075 16.6117 9.80521C16.6117 9.80306 16.6375 9.85247 16.6354 9.85677C16.6354 9.85677 16.5967 9.75579 16.6246 9.83314C16.6354 9.86536 16.6482 9.89544 16.6568 9.92767C16.6783 9.99642 16.6934 10.0673 16.7063 10.1404C16.7213 10.2242 16.7041 10.1146 16.7041 10.1146C16.7084 10.1167 16.7105 10.1769 16.7105 10.1747C16.7127 10.2091 16.7148 10.2456 16.7148 10.28C16.7148 10.2929 16.7148 10.3036 16.7148 10.3165C16.7148 10.6667 16.7148 11.0148 16.7148 11.365C16.7148 11.4939 16.7105 11.6249 16.7213 11.7538C16.7557 12.1599 16.8932 12.538 17.1424 12.8603C17.3594 13.1396 17.6344 13.3802 17.8836 13.6294C17.9953 13.7411 18.1049 13.8507 18.2166 13.9624C18.2639 14.0097 18.309 14.057 18.352 14.1085C18.4035 14.1708 18.3477 14.0999 18.3412 14.0956C18.352 14.1021 18.3713 14.1386 18.3756 14.1451C18.3949 14.1751 18.4143 14.2052 18.4314 14.2353C18.4486 14.2654 18.4658 14.2976 18.4809 14.3277C18.4873 14.3406 18.498 14.3749 18.5066 14.3814C18.4916 14.3685 18.4766 14.304 18.498 14.362C18.5238 14.4329 18.5453 14.5017 18.5625 14.5747C18.5711 14.6091 18.5775 14.6413 18.5818 14.6757C18.5969 14.7531 18.5732 14.5833 18.5818 14.6929C18.5883 14.7617 18.5883 14.8304 18.5861 14.8992C18.584 14.9292 18.5732 14.97 18.5775 15.0023C18.5668 14.9292 18.5883 14.9357 18.5818 14.9765C18.5775 14.9958 18.5754 15.0152 18.5711 15.0345C18.5582 15.1033 18.5389 15.1699 18.5174 15.2343C18.5109 15.2536 18.4701 15.3482 18.4959 15.2945C18.526 15.2365 18.4744 15.3374 18.4658 15.3525C18.4314 15.4212 18.3863 15.4814 18.3455 15.5458C18.3197 15.5845 18.3627 15.5222 18.367 15.5201C18.3605 15.5201 18.3348 15.5609 18.3283 15.5673C18.3004 15.6081 18.2725 15.6382 18.2424 15.6683C18.0855 15.8294 18.0705 16.1173 18.2424 16.2763C18.4121 16.4331 18.6828 16.4482 18.8504 16.2763C19.3617 15.7542 19.5701 14.9894 19.3725 14.2825C19.2779 13.9474 19.0953 13.6402 18.8504 13.3909C18.7666 13.305 18.6807 13.2212 18.5947 13.1353C18.3691 12.9097 18.1414 12.6863 17.9158 12.4585C17.8879 12.4306 17.86 12.4005 17.8342 12.3704C17.8256 12.3597 17.7805 12.3038 17.8148 12.3468C17.8471 12.3876 17.8127 12.3425 17.8084 12.3361C17.7568 12.2609 17.7139 12.1835 17.6709 12.1019C17.6344 12.031 17.6666 12.0997 17.673 12.1105C17.6623 12.0911 17.6559 12.0654 17.6494 12.046C17.6365 12.0095 17.6236 11.9708 17.615 11.9322C17.6043 11.8935 17.5957 11.8548 17.5871 11.8161C17.585 11.8011 17.5721 11.7624 17.5764 11.7495C17.5785 11.7646 17.5807 11.7796 17.5828 11.7968C17.5807 11.7796 17.5785 11.7624 17.5785 11.7452C17.5678 11.6163 17.5742 11.4853 17.5742 11.3542C17.5742 11.0062 17.5764 10.6603 17.5742 10.3122C17.5699 9.64837 17.2584 9.0511 16.732 8.65364C16.3217 8.34427 15.8404 8.26263 15.3398 8.26263C14.9768 8.26263 14.6137 8.26263 14.2506 8.26263C14.2377 8.26263 14.227 8.26263 14.2141 8.26263C14.1969 8.26263 14.1775 8.26263 14.1604 8.26263C14.1432 8.26263 14.126 8.26048 14.1088 8.26048C14.0916 8.26048 14.0744 8.25833 14.0572 8.25618C14.025 8.25189 14.0336 8.25403 14.0873 8.26048C14.0293 8.27552 13.9111 8.22396 13.8553 8.20677C13.8166 8.19603 13.7801 8.18099 13.7436 8.1681C13.6855 8.14876 13.808 8.20032 13.7521 8.17239C13.7264 8.1595 13.7006 8.14876 13.677 8.13372C13.6061 8.0972 13.5416 8.05208 13.475 8.00696C13.5545 8.06067 13.4514 7.98548 13.4299 7.96614C13.4127 7.9511 13.3955 7.93392 13.3783 7.91673C13.3504 7.8888 13.3203 7.85872 13.2924 7.83079C13.026 7.56868 12.766 7.30657 12.5039 7.04446C12.0936 6.63411 11.5607 6.3763 10.9721 6.38704C10.6111 6.39349 10.2459 6.49446 9.93652 6.68567C9.76465 6.79095 9.61856 6.92415 9.47676 7.06595C9.21465 7.32806 8.95254 7.59017 8.69043 7.85228C8.66465 7.87806 8.63887 7.90384 8.61309 7.92962C8.58516 7.95755 8.55293 7.98333 8.52285 8.01126C8.50781 8.02415 8.4584 8.05638 8.5293 8.00696C8.51426 8.01771 8.50137 8.0263 8.48848 8.03704C8.41328 8.0886 8.33379 8.12942 8.25215 8.17239C8.19844 8.20247 8.3209 8.14876 8.26074 8.1681C8.2457 8.17454 8.22852 8.18099 8.21348 8.18528C8.17051 8.20032 8.12754 8.21321 8.08457 8.2261C8.0459 8.23685 8.00723 8.24544 7.96856 8.25189C7.95352 8.25403 7.88047 8.26263 7.94063 8.25618C8.00723 8.24974 7.89766 8.25833 7.89551 8.25833C7.8418 8.26263 7.78594 8.26263 7.73223 8.26263C7.36484 8.26263 6.99531 8.26263 6.62793 8.26263C6.44102 8.26263 6.26055 8.26907 6.07578 8.30345C5.73418 8.3636 5.42266 8.53118 5.1541 8.74817C4.68359 9.1306 4.43223 9.73001 4.43223 10.3316C4.43223 10.6904 4.43223 11.0492 4.43223 11.4079C4.43223 11.4702 4.43223 11.5304 4.43223 11.5927C4.43223 11.6034 4.43223 11.6142 4.43223 11.6249C4.43223 11.6486 4.43223 11.6722 4.43008 11.6958C4.43008 11.7195 4.42793 11.7409 4.42578 11.7646C4.42149 11.8226 4.43438 11.7775 4.43008 11.7517C4.44512 11.814 4.39141 11.9386 4.37207 12.0009C4.36133 12.0331 4.35274 12.0847 4.33125 12.1126C4.37637 12.0525 4.34844 12.0783 4.3334 12.104C4.32051 12.1298 4.30762 12.1556 4.29473 12.1792C4.27539 12.2136 4.25606 12.248 4.23457 12.2824C4.21953 12.306 4.14004 12.407 4.20234 12.3339C4.16367 12.379 4.12715 12.422 4.08633 12.465C3.85215 12.7034 3.61367 12.9376 3.37734 13.174C3.2957 13.2556 3.21192 13.3351 3.13242 13.4189C2.8832 13.6788 2.69629 14.0075 2.61465 14.3599C2.45352 15.0517 2.65762 15.7779 3.15606 16.2827C3.39024 16.5212 3.62871 16.7554 3.86504 16.9917C3.94668 17.0734 4.03047 17.155 4.11211 17.2388C4.14004 17.2689 4.16582 17.299 4.1916 17.329C4.22383 17.3656 4.18086 17.314 4.17656 17.3097C4.18945 17.329 4.20234 17.3462 4.21524 17.3656C4.26035 17.4322 4.33125 17.5224 4.34844 17.604C4.34629 17.5911 4.31621 17.5181 4.34414 17.5954C4.35059 17.6105 4.35488 17.6277 4.36133 17.6427C4.37637 17.6857 4.38926 17.7286 4.4 17.7738C4.40859 17.8124 4.41719 17.8511 4.42578 17.8898C4.43867 17.9499 4.44082 17.8941 4.42363 17.8769C4.43223 17.8855 4.42793 17.9327 4.43008 17.9456C4.45156 18.2786 4.43438 18.6159 4.43438 18.9511C4.43438 19.0886 4.43438 19.2261 4.43438 19.3636C4.43652 19.6816 4.50957 19.9802 4.64277 20.2681C4.94141 20.9083 5.57735 21.3144 6.26485 21.3982C6.60215 21.439 6.95449 21.4111 7.29395 21.4111C7.45078 21.4111 7.60762 21.4111 7.76445 21.4111C7.7752 21.4111 7.78594 21.4111 7.79453 21.4111C7.82246 21.4111 7.85254 21.4111 7.88047 21.4132C7.89766 21.4132 7.91484 21.4154 7.93203 21.4175C8.0416 21.424 7.87617 21.4046 7.93633 21.4175C8.02012 21.4347 8.10176 21.4519 8.1834 21.4777C8.20488 21.4841 8.22637 21.4927 8.24785 21.5013C8.25645 21.5034 8.30801 21.5271 8.25859 21.5056C8.20703 21.482 8.27149 21.512 8.28438 21.5185C8.31016 21.5314 8.33594 21.5443 8.35957 21.5572C8.39395 21.5765 8.42832 21.598 8.46055 21.6195C8.48848 21.6388 8.55938 21.6968 8.49707 21.6431C8.54219 21.6818 8.58516 21.7204 8.62813 21.7613C8.66035 21.7913 8.69043 21.8236 8.72051 21.8536C8.85586 21.989 8.99336 22.1265 9.12871 22.2618C9.41016 22.5433 9.68301 22.8634 10.0418 23.0482C10.6777 23.379 11.4662 23.3661 12.0785 22.9794C12.4051 22.7732 12.6693 22.4638 12.94 22.1931C13.0668 22.0663 13.1936 21.9396 13.3203 21.8128C13.3482 21.7849 13.374 21.7591 13.402 21.7312C13.4342 21.699 13.4707 21.6689 13.5051 21.6409C13.4406 21.6947 13.5158 21.6345 13.5416 21.6173C13.5738 21.5958 13.6082 21.5743 13.6426 21.555C13.6619 21.5443 13.6834 21.5335 13.7027 21.5228C13.7135 21.5163 13.7994 21.4755 13.7436 21.5013C13.692 21.5249 13.7586 21.497 13.7715 21.4906C13.7865 21.4841 13.8037 21.4798 13.8188 21.4734C13.8617 21.4583 13.9047 21.4476 13.9498 21.4368C13.9885 21.4283 14.0272 21.4218 14.0658 21.4132C14.1174 21.4025 14.0357 21.4175 14.0357 21.4175C14.0443 21.4089 14.126 21.4111 14.1389 21.4089C14.1861 21.4068 14.2313 21.4068 14.2785 21.4068C14.4547 21.4068 14.6287 21.4068 14.8049 21.4068C15.1852 21.4068 15.5783 21.4347 15.9543 21.3617C16.6375 21.2284 17.1854 20.7193 17.4389 20.0812C17.5936 19.6923 17.5699 19.2734 17.5699 18.8652C17.5699 18.6632 17.5699 18.4591 17.5699 18.2572C17.5699 18.197 17.5699 18.1347 17.5699 18.0745C17.5699 18.0659 17.5699 18.0574 17.5699 18.0466C17.5699 18.0122 17.5721 17.9779 17.5742 17.9435C17.5764 17.9263 17.5785 17.9091 17.5785 17.8919C17.5807 17.8382 17.5635 17.9693 17.5785 17.8876C17.5957 17.8038 17.615 17.7222 17.6408 17.6406C17.6473 17.6255 17.6516 17.6083 17.658 17.5933C17.6859 17.5159 17.6559 17.589 17.6537 17.6019C17.6645 17.5568 17.701 17.5052 17.7225 17.4665C17.7418 17.4322 17.7633 17.3978 17.7848 17.3656C17.7977 17.3462 17.8105 17.329 17.8234 17.3097C17.8213 17.314 17.7762 17.3656 17.8084 17.329C17.8449 17.2904 17.8793 17.2495 17.9158 17.2109C18.0082 17.1163 18.1027 17.024 18.1951 16.9316C18.4121 16.7146 18.6291 16.4976 18.8461 16.2806C19.0051 16.1216 19.018 15.8294 18.8461 15.6726C18.6785 15.5115 18.4121 15.4986 18.2424 15.6683Z" fill="white"/>
<path d="M14.2398 14.8323C14.2398 14.9269 14.2356 15.0214 14.2291 15.1159C14.2248 15.161 14.2205 15.204 14.2162 15.2491C14.2141 15.262 14.2141 15.2942 14.2098 15.3071C14.2184 15.2405 14.2205 15.2319 14.2119 15.2792C14.2098 15.2878 14.2098 15.2985 14.2076 15.3071C14.1775 15.4876 14.1346 15.6681 14.0787 15.8421C14.0508 15.928 14.0164 16.0118 13.9863 16.0978C13.9648 16.1579 14.0315 15.9989 13.9906 16.087C13.982 16.1042 13.9756 16.1214 13.967 16.1386C13.9477 16.1815 13.9262 16.2245 13.9047 16.2653C13.8231 16.4243 13.7328 16.579 13.6297 16.7251C13.6082 16.7552 13.5781 16.8175 13.5459 16.839C13.5932 16.8067 13.5889 16.7853 13.5609 16.8175C13.5459 16.8347 13.5309 16.854 13.5158 16.8712C13.4557 16.9421 13.3934 17.013 13.3289 17.0796C13.2709 17.1398 13.2107 17.1978 13.1463 17.2536C13.1141 17.2815 13.084 17.3095 13.0518 17.3374C13.0367 17.3503 13.0238 17.361 13.0088 17.3739C12.9938 17.3847 12.9787 17.3976 12.9658 17.4083C13.0131 17.3718 13.0217 17.3653 12.9981 17.3847C12.852 17.4878 12.708 17.5888 12.549 17.6747C12.4738 17.7155 12.3986 17.7542 12.3213 17.7907C12.2998 17.8015 12.2783 17.8101 12.2568 17.8208C12.2074 17.8423 12.2568 17.8401 12.2805 17.8101C12.259 17.8358 12.1645 17.8552 12.1344 17.8659C11.9625 17.9282 11.7863 17.9776 11.6059 18.012C11.5629 18.0206 11.5199 18.0292 11.477 18.0356C11.477 18.0356 11.4232 18.0485 11.419 18.0442C11.4512 18.0636 11.507 18.0335 11.4318 18.0421C11.333 18.0528 11.2342 18.0614 11.1354 18.0657C10.9463 18.0722 10.7551 18.0657 10.5682 18.0421C10.493 18.0335 10.5488 18.0636 10.5811 18.0442C10.5768 18.0485 10.5231 18.0356 10.5231 18.0356C10.4758 18.0271 10.4264 18.0185 10.3791 18.0099C10.2889 17.9905 10.2008 17.969 10.1127 17.9454C10.0246 17.9196 9.93868 17.8917 9.85274 17.8616C9.81622 17.8487 9.78184 17.8337 9.74532 17.8208C9.65508 17.7864 9.81192 17.853 9.75606 17.8251C9.73028 17.8122 9.7045 17.8015 9.67872 17.7907C9.51544 17.7155 9.3586 17.6296 9.21036 17.5308C9.17598 17.5071 9.13946 17.4835 9.10508 17.4599C9.07715 17.4405 9.01055 17.4062 8.99122 17.3761C8.99551 17.3825 9.07071 17.4405 9.0127 17.3911C8.99766 17.3782 8.98262 17.3675 8.96973 17.3567C8.92676 17.3202 8.88379 17.2837 8.84297 17.2472C8.71192 17.129 8.58731 17.0001 8.47559 16.8626C8.4627 16.8476 8.45196 16.8325 8.44122 16.8196C8.3918 16.7595 8.45196 16.8368 8.45626 16.8411C8.42618 16.8218 8.39395 16.7573 8.37247 16.7273C8.31876 16.6499 8.26719 16.5726 8.21993 16.4909C8.17696 16.4179 8.13614 16.3448 8.09747 16.2675C8.08028 16.2331 8.06309 16.1987 8.04805 16.1665C8.03516 16.1407 8.02442 16.1149 8.01368 16.0892C7.97715 16.0118 8.0459 16.173 8.01368 16.087C7.94922 15.9173 7.89122 15.7454 7.84825 15.5671C7.82891 15.4812 7.81172 15.3952 7.79669 15.3093C7.79454 15.2899 7.79239 15.2706 7.78809 15.2513C7.81387 15.3565 7.79454 15.2964 7.79024 15.2642C7.78379 15.2105 7.7795 15.1567 7.7752 15.1009C7.76231 14.9118 7.76231 14.7206 7.77735 14.5315C7.7795 14.4929 7.78379 14.4521 7.78809 14.4134C7.79024 14.4026 7.79024 14.394 7.79239 14.3833C7.79883 14.336 7.79669 14.3446 7.78809 14.4091C7.78379 14.4048 7.79669 14.3511 7.79669 14.3511C7.81172 14.2544 7.83106 14.1599 7.85469 14.0653C7.87618 13.9815 7.89981 13.8978 7.92559 13.8161C7.93848 13.7753 7.95352 13.7345 7.96641 13.6937C7.97715 13.6657 7.99864 13.5648 8.02227 13.5476C8.01797 13.5497 7.9793 13.6442 8.01153 13.5712C8.02227 13.5497 8.03086 13.5282 8.04161 13.5067C8.05879 13.4681 8.07813 13.4294 8.09747 13.3929C8.14044 13.3091 8.18555 13.2274 8.23497 13.1458C8.27794 13.0728 8.3252 13.0019 8.37461 12.9331C8.39825 12.8987 8.42618 12.8665 8.44981 12.8321C8.48633 12.7806 8.38321 12.9138 8.44337 12.8407C8.46055 12.8192 8.47774 12.7978 8.49708 12.7763C8.61094 12.6409 8.73555 12.512 8.86876 12.3939C8.90098 12.3659 8.93106 12.338 8.96544 12.3122C8.98262 12.2972 9.00196 12.2821 9.01915 12.2671C9.05352 12.2392 9.02989 12.2349 8.99766 12.2821C9.017 12.2542 9.07286 12.2263 9.09864 12.2069C9.14161 12.1769 9.18243 12.1489 9.22754 12.121C9.37794 12.0243 9.53477 11.9362 9.69805 11.8632C9.71524 11.8546 9.73243 11.8481 9.74961 11.8396C9.8377 11.7987 9.67872 11.8653 9.73887 11.8439C9.77969 11.8288 9.81836 11.8116 9.85919 11.7966C9.94942 11.7644 10.0397 11.7343 10.132 11.7085C10.2158 11.6849 10.2996 11.6655 10.3856 11.6483C10.4328 11.6376 10.4822 11.629 10.5295 11.6226C10.5488 11.6204 10.5682 11.6183 10.5875 11.614C10.4736 11.6419 10.5596 11.6183 10.5897 11.614C10.7787 11.5925 10.9678 11.586 11.1568 11.5925C11.2471 11.5968 11.3352 11.6032 11.4232 11.614C11.4361 11.6161 11.5221 11.6376 11.4533 11.6183C11.3846 11.5968 11.4705 11.6226 11.4834 11.6226C11.5307 11.6312 11.5801 11.6398 11.6273 11.6483C11.8057 11.6849 11.9818 11.7343 12.1537 11.7966C12.1838 11.8073 12.2697 11.8245 12.2869 11.8481C12.2848 11.8439 12.1902 11.8052 12.2633 11.8374C12.2805 11.846 12.2977 11.8524 12.3148 11.861C12.4008 11.8997 12.4846 11.9427 12.5684 11.9878C12.6414 12.0286 12.7145 12.0716 12.7854 12.1189C12.824 12.1446 12.8627 12.1704 12.9014 12.1983C12.9336 12.2198 12.9938 12.2499 13.0152 12.2821C12.9744 12.2177 12.9701 12.2456 13.0045 12.2757C13.0217 12.2907 13.041 12.3058 13.0582 12.3208C13.0861 12.3444 13.1162 12.3702 13.142 12.3939C13.2107 12.4562 13.2795 12.5206 13.344 12.5872C13.402 12.6474 13.4578 12.7097 13.5137 12.7741C13.5287 12.7913 13.5438 12.8106 13.5588 12.8278C13.5889 12.8644 13.6168 12.8601 13.5523 12.8171C13.5867 12.8386 13.6125 12.8966 13.6361 12.931C13.7393 13.0771 13.8316 13.2296 13.9111 13.3907C13.9326 13.4337 13.952 13.4745 13.9734 13.5175C13.982 13.5347 13.9885 13.5519 13.9971 13.569C14.0293 13.6421 13.9906 13.5476 13.9863 13.5454C14.0078 13.5605 14.0293 13.6528 14.0379 13.6786C14.0551 13.7237 14.0701 13.7689 14.0852 13.814C14.141 13.988 14.184 14.1685 14.2141 14.3489C14.2162 14.3618 14.2398 14.4478 14.2184 14.379C14.1969 14.3103 14.2205 14.3962 14.2227 14.4091C14.227 14.4478 14.2313 14.4886 14.2334 14.5273C14.2356 14.6325 14.2398 14.7335 14.2398 14.8323C14.2398 15.0579 14.4375 15.2728 14.6695 15.262C14.9016 15.2513 15.0992 15.073 15.0992 14.8323C15.0949 13.9987 14.8436 13.1608 14.3559 12.4798C13.8596 11.7858 13.1785 11.2659 12.3772 10.9716C10.7959 10.3915 8.92462 10.9028 7.85684 12.2048C7.30899 12.873 6.98243 13.6722 6.91368 14.5337C6.84493 15.3694 7.05547 16.2331 7.48946 16.9507C7.91055 17.6425 8.54219 18.2226 9.2834 18.5534C10.0891 18.9144 10.9699 19.0175 11.8357 18.8456C13.4578 18.5212 14.7877 17.1462 15.0412 15.5091C15.0756 15.2835 15.0992 15.0601 15.0992 14.8323C15.0992 14.6067 14.9016 14.3919 14.6695 14.4026C14.4354 14.4134 14.242 14.5917 14.2398 14.8323ZM13.9262 20.9747C13.9262 21.6751 13.9262 22.3755 13.9262 23.0759C13.9262 24.1909 13.9262 25.306 13.9262 26.421C13.9262 26.6745 13.9262 26.9302 13.9262 27.1837C14.1066 27.0462 14.2893 26.9065 14.4697 26.769C13.4857 26.3673 12.5018 25.9655 11.5178 25.5638C11.3867 25.5101 11.2535 25.4456 11.1182 25.4005C10.9441 25.3446 10.783 25.4413 10.6305 25.5036C10.0568 25.7378 9.48536 25.972 8.91172 26.204C8.45196 26.3931 7.99004 26.58 7.53028 26.769C7.71075 26.9065 7.89336 27.0462 8.07383 27.1837C8.07383 26.4833 8.07383 25.7829 8.07383 25.0825C8.07383 23.9675 8.07383 22.8524 8.07383 21.7374C8.07383 21.4839 8.07383 21.2282 8.07383 20.9747C7.92989 21.1187 7.78809 21.2605 7.64415 21.4044C7.68926 21.4044 7.73223 21.4044 7.77735 21.4044C7.80528 21.4044 7.83106 21.4044 7.85899 21.4065C7.88262 21.4065 7.90411 21.4108 7.92774 21.4108C8.03946 21.4173 7.83965 21.3915 7.94922 21.413C8.04376 21.4302 8.13829 21.4538 8.22852 21.4882C8.2543 21.4989 8.3252 21.5097 8.23497 21.4903C8.2543 21.4946 8.28008 21.5118 8.29727 21.5204C8.34883 21.5462 8.39825 21.5741 8.44551 21.6042C8.47344 21.6214 8.56583 21.6944 8.49708 21.6364C8.53575 21.6687 8.57657 21.703 8.61309 21.7396C8.62598 21.7524 8.63672 21.7632 8.64962 21.7761C8.70333 21.8298 8.75704 21.8835 8.8086 21.9351C8.97833 22.1048 9.1459 22.2724 9.31563 22.4421C9.43165 22.5581 9.54551 22.6849 9.67442 22.7901C10.3404 23.3401 11.2857 23.4454 12.0377 22.9985C12.2397 22.8782 12.4094 22.7171 12.5727 22.5517C12.7381 22.3862 12.9035 22.2208 13.069 22.0554C13.2065 21.9179 13.344 21.7782 13.4879 21.6472C13.5373 21.6021 13.4041 21.7009 13.4965 21.6407C13.5201 21.6257 13.5438 21.6085 13.5674 21.5935C13.6147 21.5634 13.6641 21.5355 13.7156 21.5097C13.7371 21.4989 13.8037 21.4603 13.7221 21.5054C13.7457 21.4925 13.7758 21.4839 13.8016 21.4753C13.8553 21.456 13.909 21.4409 13.9648 21.428C13.9928 21.4216 14.0207 21.4173 14.0486 21.4108C14.1303 21.3937 13.9992 21.413 14.0529 21.4108C14.1045 21.4087 14.1561 21.4044 14.2098 21.4023C14.257 21.4023 14.3065 21.4023 14.3537 21.4023C14.5793 21.4023 14.7941 21.2046 14.7834 20.9726C14.7727 20.7405 14.5943 20.5429 14.3537 20.5429C13.9584 20.5429 13.5889 20.603 13.2365 20.7899C13.0131 20.9081 12.8262 21.08 12.65 21.2562C12.3772 21.529 12.1086 21.804 11.8336 22.0726C11.81 22.094 11.7885 22.1177 11.7648 22.137C11.7498 22.1499 11.7326 22.1649 11.7176 22.1778C11.6424 22.2444 11.7713 22.1435 11.7197 22.1757C11.6381 22.2273 11.5586 22.2767 11.4705 22.3218C11.4404 22.339 11.4297 22.3605 11.4898 22.3153C11.477 22.3239 11.4469 22.3325 11.434 22.3368C11.3975 22.3497 11.3588 22.3626 11.3201 22.3733C11.2772 22.3862 11.2342 22.3948 11.1912 22.4034C11.1762 22.4056 11.1311 22.4228 11.1182 22.4163C11.1397 22.4271 11.2127 22.4056 11.1289 22.412C11.0451 22.4185 10.9613 22.4185 10.8797 22.4142C10.8818 22.4142 10.8217 22.412 10.8217 22.4099C10.8281 22.4249 10.9205 22.4249 10.8346 22.4099C10.7852 22.4013 10.7379 22.3905 10.6906 22.3776C10.6477 22.3669 10.6047 22.3519 10.5639 22.3368C10.5488 22.3304 10.5231 22.3175 10.508 22.3153C10.5188 22.3175 10.5961 22.3562 10.5273 22.3218C10.4457 22.281 10.3684 22.2337 10.291 22.1843C10.2072 22.1306 10.3404 22.2273 10.291 22.1864C10.276 22.1735 10.2588 22.1606 10.2438 22.1456C10.2158 22.122 10.19 22.0962 10.1621 22.0704C10.1514 22.0597 10.1428 22.0511 10.132 22.0403C10.074 21.9823 10.016 21.9243 9.96016 21.8685C9.79044 21.6987 9.62071 21.529 9.45098 21.3593C9.27266 21.181 9.10079 21.0048 8.89024 20.8651C8.51426 20.6181 8.08458 20.5407 7.642 20.5407C7.40997 20.5407 7.21231 20.7384 7.21231 20.9704C7.21231 21.6708 7.21231 22.3712 7.21231 23.0716C7.21231 24.1866 7.21231 25.3017 7.21231 26.4167C7.21231 26.6702 7.21231 26.9259 7.21231 27.1794C7.21231 27.4308 7.49161 27.7015 7.75587 27.594C8.73555 27.1944 9.71524 26.7948 10.6949 26.3952C10.8346 26.3394 10.9742 26.2814 11.1117 26.2255C11.0365 26.2255 10.9592 26.2255 10.884 26.2255C11.8637 26.6251 12.8434 27.0247 13.8231 27.4243C13.9627 27.4802 14.1023 27.5382 14.2398 27.594C14.5041 27.7015 14.7834 27.4308 14.7834 27.1794C14.7834 26.479 14.7834 25.7786 14.7834 25.0782C14.7834 23.9632 14.7834 22.8481 14.7834 21.7331C14.7834 21.4796 14.7834 21.2239 14.7834 20.9704C14.7834 20.7448 14.5857 20.53 14.3537 20.5407C14.1238 20.5558 13.9262 20.7341 13.9262 20.9747Z" fill="white"/>
</g>
</svg>
