<svg width="38" height="36" viewBox="0 0 38 36" fill="none" xmlns="http://www.w3.org/2000/svg">
<path d="M3.15665 19.9973C3.09934 19.9973 3.04204 20.0002 2.98473 20.0002C1.69758 16.1417 1.78574 12.317 3.36677 8.54809C4.94044 4.79682 7.48683 1.91102 11.1837 0.0243652C10.9839 -0.038817 10.8884 0.0361201 10.7929 0.077262C9.63503 0.570965 8.49922 1.11756 7.49124 1.87869C1.59472 6.32936 -0.753302 12.317 0.209125 19.5344C0.818906 24.1115 3.0391 27.9509 6.61844 30.9278C9.87747 33.6388 13.6611 35.0038 17.8899 35.1551C20.1703 35.236 22.3905 34.873 24.5813 34.275C24.6562 34.2544 24.7356 34.2397 24.7797 34.1472C24.7209 34.1472 24.6724 34.1428 24.6254 34.1472C21.719 34.4454 18.8655 34.1619 16.181 33.0055C11.291 30.8984 7.98641 27.4161 7.18855 21.9648C6.95346 20.3529 7.14888 18.7454 7.79393 17.2231C7.90119 16.9704 8.00405 16.7089 8.30526 16.4694C8.30526 16.7148 8.30526 16.8911 8.30526 17.0674C8.31702 20.3279 9.35438 23.2519 11.2396 25.8835C13.1321 28.5254 15.6638 30.3753 18.5937 31.7125C20.7375 32.691 23.0047 33.195 25.3454 33.3846C25.9698 33.4345 26.5752 33.5095 27.1967 33.1847C31.8517 30.7588 35.1048 27.131 36.8019 22.1396C37.4543 20.2206 37.8158 18.2458 37.9554 16.2313C38.0171 15.3497 38.0347 14.4608 37.876 13.5674C37.7482 13.6365 37.7585 13.7408 37.7349 13.8334C36.9533 16.9161 35.3899 19.5403 32.8773 21.4843C29.126 24.3848 24.8517 25.5265 20.138 24.8021C17.0788 24.3319 14.4721 22.9933 12.4033 20.6394C9.36614 17.182 8.82395 12.4624 11.0544 8.44082C12.4532 5.91794 14.5721 4.19733 17.1743 3.02625C17.2404 2.99687 17.3109 2.97189 17.3756 2.93956C17.4402 2.90724 17.5005 2.86609 17.5622 2.82936C14.118 3.85938 11.4306 5.97672 9.109 8.73469C9.1428 8.61568 9.15161 8.56866 9.16777 8.52605C9.54246 7.51513 10.1552 6.65703 10.8428 5.83566C13.3055 2.89254 16.4881 1.3027 20.2629 0.908915C22.6373 0.660594 24.9589 1.05144 27.2188 1.80522C27.6743 1.95656 28.1254 2.12554 28.6411 2.30921C28.5765 2.23133 28.5647 2.20782 28.5471 2.19607C28.4633 2.14611 28.3781 2.09909 28.2914 2.05354C26.1609 0.94418 23.8863 0.372601 21.4957 0.197748C19.1285 0.0258335 16.8128 0.235952 14.5588 1.00002C11.0045 2.20489 8.23473 4.43243 6.11887 7.50044C4.20136 10.2805 3.22718 13.369 3.15959 16.7427C3.13755 17.83 3.15665 18.9173 3.15665 20.0046V19.9973ZM21.5427 3.39065C20.786 3.47 20.0777 3.71832 19.3813 4.00337C18.6907 4.28549 18.0353 4.6396 17.4094 5.04221C16.7702 5.45363 16.1928 5.94292 15.6476 6.47189C15.1157 6.98763 14.6264 7.54158 14.121 8.07055C16.0767 4.4383 19.3533 2.775 23.2295 1.99624C22.8166 1.97273 22.4111 2.04619 22.0055 2.10938C18.8258 2.60455 16.1178 3.98427 14.0122 6.44691C11.8435 8.98595 10.9589 11.885 11.6862 15.1984C11.9522 16.4135 12.4738 17.5185 13.2056 18.5294C12.7765 17.6654 12.5605 16.7485 12.5297 15.792C12.4988 14.8208 12.6384 13.8701 12.9425 12.9459C13.2996 11.8644 13.8653 10.7727 14.2444 10.4671C13.8344 11.4545 13.52 12.4536 13.4113 13.5042C13.185 15.7112 13.7375 17.6125 15.6447 18.9291C16.8951 19.7916 18.3116 20.1046 19.8206 20.009C21.5427 19.8988 23.1751 19.4154 24.7723 18.7924C24.8502 18.7616 24.9663 18.766 24.978 18.6176C24.5328 18.597 24.0935 18.5852 23.6571 18.5529C21.7425 18.4148 19.9102 18.0151 18.3351 16.8308C16.1516 15.191 14.8336 13.1295 15.223 10.2746C15.5242 8.06908 16.5072 6.25148 18.3454 4.93347C19.3225 4.23259 20.3936 3.73301 21.5441 3.38772L21.5427 3.39065Z" fill="url(#paint0_linear_21_5364)"/>
<defs>
<linearGradient id="paint0_linear_21_5364" x1="19" y1="0" x2="19" y2="35.1663" gradientUnits="userSpaceOnUse">
<stop stop-color="white"/>
<stop offset="0.96875" stop-color="#C1C1C1"/>
<stop offset="1" stop-color="#9F9F9F"/>
</linearGradient>
</defs>
</svg>
