<svg width="22" height="22" viewBox="0 0 22 22" fill="none" xmlns="http://www.w3.org/2000/svg">
<g opacity="0.4">
<path d="M18.3 12.9954C18.8603 12.5239 19.2621 11.8915 19.4508 11.1841C19.6396 10.4766 19.6061 9.72818 19.3551 9.04033C19.104 8.35248 18.6475 7.75843 18.0473 7.33869C17.4472 6.91895 16.7324 6.69382 16 6.69382C15.2676 6.69382 14.5528 6.91895 13.9527 7.33869C13.3525 7.75843 12.896 8.35248 12.6449 9.04033C12.3939 9.72818 12.3604 10.4766 12.5492 11.1841C12.7379 11.8915 13.1397 12.5239 13.7 12.9954C13.5405 13.0775 13.3855 13.1681 13.2357 13.2668C12.597 11.913 11.5057 10.8245 10.15 10.1892C11.0539 9.60184 11.7437 8.73814 12.1165 7.7269C12.4893 6.71565 12.5252 5.61103 12.2188 4.57773C11.9124 3.54444 11.2801 2.63783 10.4162 1.99309C9.5523 1.34834 8.50309 1 7.425 1C6.34691 1 5.2977 1.34834 4.43381 1.99309C3.56992 2.63783 2.93762 3.54444 2.63121 4.57773C2.32479 5.61103 2.36067 6.71565 2.73348 7.7269C3.1063 8.73814 3.79609 9.60184 4.7 10.1892C3.59498 10.707 2.66023 11.5286 2.00503 12.5579C1.34983 13.5872 1.00123 14.7816 1 16.0016V20.2859C1 20.4753 1.07525 20.6569 1.20921 20.7909C1.34316 20.9248 1.52485 21 1.71429 21H20.2857C20.4752 21 20.6568 20.9248 20.7908 20.7909C20.9247 20.6569 21 20.4753 21 20.2859V17.4297C20.9993 16.5143 20.7471 15.6167 20.271 14.8347C19.7949 14.0528 19.1131 13.4165 18.3 12.9954ZM13.8571 10.2892C13.8571 9.8655 13.9828 9.45133 14.2183 9.09905C14.4537 8.74678 14.7884 8.47221 15.18 8.31007C15.5715 8.14794 16.0024 8.10552 16.4181 8.18817C16.8337 8.27083 17.2155 8.47485 17.5152 8.77444C17.8149 9.07403 18.019 9.45572 18.1017 9.87126C18.1844 10.2868 18.1419 10.7175 17.9797 11.1089C17.8176 11.5004 17.5429 11.8349 17.1905 12.0703C16.8381 12.3057 16.4238 12.4313 16 12.4313C15.4317 12.4313 14.8866 12.2057 14.4848 11.8039C14.0829 11.4022 13.8571 10.8573 13.8571 10.2892ZM3.85714 6.00485C3.85714 5.29871 4.0666 4.60844 4.45904 4.02131C4.85147 3.43418 5.40925 2.97657 6.06185 2.70634C6.71444 2.43612 7.43253 2.36542 8.12532 2.50318C8.81811 2.64094 9.45448 2.98097 9.95395 3.48028C10.4534 3.97959 10.7936 4.61576 10.9314 5.30832C11.0692 6.00089 10.9985 6.71875 10.7281 7.37113C10.4578 8.02352 10.0001 8.58112 9.41275 8.97342C8.82543 9.36573 8.13493 9.57512 7.42857 9.57512C6.48137 9.57512 5.57296 9.19897 4.90319 8.52941C4.23342 7.85986 3.85714 6.95174 3.85714 6.00485ZM11.7143 19.5719H2.42857V16.0016C2.42857 14.676 2.95536 13.4046 3.89304 12.4672C4.83072 11.5298 6.10249 11.0032 7.42857 11.0032C8.75465 11.0032 10.0264 11.5298 10.9641 12.4672C11.9018 13.4046 12.4286 14.676 12.4286 16.0016V19.5719H11.7143ZM19.5714 19.5719H13.8571V16.0016C13.8585 15.5652 13.8155 15.1297 13.7286 14.702C14.3609 14.1593 15.1665 13.8604 16 13.8595C16.9472 13.8595 17.8556 14.2356 18.5254 14.9052C19.1952 15.5747 19.5714 16.4828 19.5714 17.4297V19.5719Z" fill="white"/>
</g>
</svg>
