<svg width="15" height="15" viewBox="0 0 15 15" fill="none" xmlns="http://www.w3.org/2000/svg">
<path d="M11.5549 2C9.40986 2 6.53386 3.471 4.60186 6H2.99986C1.84286 6 1.17986 6.864 0.722863 7.777L0.109863 9H2.99986L4.49986 10.5L5.99986 12V14.889L7.22286 14.277C8.13586 13.821 8.99986 13.157 8.99986 12V10.398C11.5289 8.466 12.9999 5.589 12.9999 3.445V2H11.5549ZM8.99986 5C9.26508 5 9.51943 5.10536 9.70697 5.29289C9.89451 5.48043 9.99986 5.73478 9.99986 6C9.99986 6.26522 9.89451 6.51957 9.70697 6.70711C9.51943 6.89464 9.26508 7 8.99986 7C8.73465 7 8.48029 6.89464 8.29276 6.70711C8.10522 6.51957 7.99986 6.26522 7.99986 6C7.99986 5.73478 8.10522 5.48043 8.29276 5.29289C8.48029 5.10536 8.73465 5 8.99986 5ZM2.49986 11L1.99986 11.5C1.27786 12.222 0.999863 14 0.999863 14C0.999863 14 2.69786 13.802 3.49986 13L3.99986 12.5L2.49986 11Z" fill="#8BCE2B"/>
</svg>
